<?xml version="1.0" standalone="no"?>
<!DOCTYPE svg PUBLIC "-//W3C//DTD SVG 20010904//EN"
        "http://www.w3.org/TR/2001/REC-SVG-20010904/DTD/svg10.dtd">
<svg version="1.0" xmlns="http://www.w3.org/2000/svg"
     width="1112.000000pt" height="662.000000pt" viewBox="0 0 1112.000000 662.000000"
     preserveAspectRatio="xMidYMid meet">

    <g transform="translate(0.000000,662.000000) scale(0.100000,-0.100000)"
       fill="#000000" stroke="none">
        <path d="M7081 6580 c-18 -4 -45 -17 -60 -27 -14 -11 -41 -25 -58 -31 -18 -6
-63 -35 -100 -65 -38 -29 -83 -59 -100 -65 -18 -6 -64 -38 -103 -71 l-71 -61
-783 0 c-475 0 -804 -4 -835 -10 -29 -5 -67 -20 -84 -32 -29 -21 -45 -23 -218
-28 -183 -5 -186 -5 -225 -33 -39 -26 -46 -27 -196 -32 -139 -4 -164 -8 -225
-31 -60 -24 -87 -28 -234 -33 -154 -7 -169 -9 -210 -33 -25 -15 -73 -31 -107
-38 -35 -6 -82 -19 -107 -30 -24 -10 -80 -24 -125 -31 -45 -6 -101 -22 -125
-34 -23 -13 -69 -28 -101 -35 -33 -7 -77 -23 -99 -35 -22 -13 -56 -26 -75 -30
-19 -4 -53 -17 -75 -30 -22 -13 -67 -30 -99 -38 -32 -9 -66 -23 -76 -32 -10
-9 -44 -23 -76 -32 -32 -8 -77 -25 -99 -38 -22 -13 -56 -26 -75 -30 -19 -4
-56 -20 -81 -36 -25 -16 -53 -29 -61 -29 -8 0 -32 -11 -53 -25 -20 -14 -59
-34 -86 -44 -26 -10 -60 -28 -75 -40 -15 -11 -34 -21 -44 -21 -9 0 -35 -12
-56 -26 -21 -15 -55 -32 -75 -39 -20 -7 -58 -29 -85 -49 -27 -20 -66 -48 -87
-63 -21 -16 -50 -38 -65 -50 -51 -42 -134 -94 -171 -107 -20 -8 -54 -25 -75
-40 -21 -14 -45 -26 -52 -26 -7 0 -25 -11 -41 -24 -15 -13 -49 -33 -76 -44
-26 -11 -47 -26 -47 -31 0 -6 -19 -20 -42 -31 -71 -34 -277 -251 -345 -364
-10 -16 -58 -72 -106 -125 -49 -53 -97 -113 -108 -133 -10 -20 -25 -41 -33
-45 -7 -4 -23 -26 -35 -48 -26 -48 -60 -99 -95 -141 -14 -18 -26 -36 -26 -41
0 -6 -14 -29 -30 -52 -17 -22 -35 -65 -41 -94 -6 -28 -22 -72 -34 -97 -13 -25
-28 -72 -34 -104 -6 -32 -20 -73 -31 -90 -11 -18 -26 -64 -34 -102 -9 -38 -27
-91 -41 -119 l-26 -50 3 -345 c3 -331 4 -347 25 -393 12 -26 29 -84 37 -130 8
-46 24 -99 35 -118 12 -20 26 -62 32 -94 6 -33 21 -80 34 -105 13 -25 28 -72
34 -104 6 -32 20 -73 31 -90 11 -18 25 -56 31 -85 11 -52 43 -97 160 -222 19
-20 43 -51 54 -69 11 -18 31 -52 45 -74 35 -58 360 -380 407 -405 22 -11 45
-27 53 -36 7 -9 28 -22 47 -30 18 -8 33 -19 33 -24 0 -6 17 -19 39 -30 21 -11
41 -27 44 -35 4 -9 27 -21 52 -27 30 -8 52 -21 65 -39 11 -15 34 -33 52 -40
18 -8 48 -26 66 -42 18 -15 39 -28 46 -28 7 0 23 -11 36 -25 12 -13 39 -30 59
-36 20 -6 45 -20 57 -30 11 -10 42 -26 70 -35 27 -9 59 -26 71 -37 13 -11 53
-28 90 -38 38 -10 93 -27 123 -38 30 -11 67 -20 82 -21 35 0 78 -17 103 -40
11 -10 37 -23 58 -28 20 -6 50 -22 67 -35 19 -17 52 -29 97 -36 37 -7 96 -21
131 -31 34 -11 100 -24 147 -30 46 -6 112 -21 147 -34 35 -13 100 -29 144 -35
45 -7 113 -21 150 -33 56 -17 109 -22 279 -28 192 -6 220 -10 333 -40 l124
-32 291 5 c162 3 308 10 327 16 143 43 142 43 460 51 278 6 323 10 380 28 36
11 131 28 212 37 81 8 166 22 189 30 23 8 83 21 134 29 60 9 107 22 136 38 24
14 66 31 93 37 27 7 63 22 79 33 20 15 60 25 134 34 58 8 135 23 172 33 36 11
95 22 131 26 43 4 82 16 115 34 28 16 72 34 99 40 27 7 62 21 76 31 16 11 66
25 122 34 53 9 109 21 124 27 16 6 71 19 122 30 52 10 106 28 121 38 15 11 50
25 77 32 27 7 67 22 89 35 22 12 60 28 85 34 25 7 63 22 85 35 22 13 56 26 75
30 19 4 60 19 90 35 30 15 71 31 90 35 19 4 51 17 70 29 19 13 58 28 85 35 28
7 61 19 73 28 13 8 47 23 75 32 29 10 70 30 91 45 21 14 46 26 55 26 10 0 33
11 52 25 19 14 59 33 89 42 30 9 65 24 78 33 12 10 45 24 74 30 28 7 76 26
106 41 30 16 60 29 66 29 7 0 29 15 49 33 53 47 99 82 127 97 14 7 40 26 58
41 18 16 41 29 51 29 10 0 39 11 64 25 25 13 65 29 89 36 23 6 56 22 73 36 40
33 92 68 137 93 20 11 48 31 62 45 14 14 30 25 37 25 7 0 28 12 48 28 20 15
63 37 96 48 130 47 185 70 207 91 13 11 35 27 49 34 58 31 120 78 175 133 33
32 73 64 91 72 17 8 34 18 38 24 3 6 24 19 46 31 22 11 82 62 134 114 51 52
100 95 108 95 8 0 20 7 28 16 7 8 35 27 62 40 36 19 52 35 64 61 8 20 25 51
38 67 12 17 26 46 30 64 4 18 17 45 29 60 13 15 29 38 36 52 7 14 22 31 32 38
11 8 30 37 44 65 13 29 31 63 39 77 8 14 22 41 30 60 9 19 25 51 36 70 17 32
19 56 19 275 0 247 0 248 -43 308 -14 19 -20 52 -24 122 -5 79 -10 102 -28
124 -12 14 -27 40 -34 57 -7 17 -35 53 -62 80 -49 48 -139 172 -139 192 0 15
-149 142 -168 142 -17 0 -138 143 -165 196 -9 18 -56 68 -104 113 -76 71 -93
82 -142 92 -69 14 -112 42 -217 135 -45 39 -90 75 -102 78 -11 4 -23 13 -26
21 -3 8 -22 21 -42 30 -20 8 -52 28 -70 45 -19 16 -40 30 -45 30 -6 0 -25 12
-43 26 -45 37 -94 69 -148 99 -27 14 -48 30 -48 35 0 6 -12 16 -27 22 -16 7
-46 24 -68 39 -22 15 -67 33 -100 39 -33 6 -76 22 -95 34 -19 13 -45 26 -56
30 -12 4 -36 20 -53 36 -17 17 -36 30 -42 30 -6 0 -29 13 -52 29 -30 21 -62
33 -112 40 -79 12 -216 64 -261 99 -69 56 -137 91 -187 97 -29 3 -91 20 -139
36 -47 16 -96 29 -108 29 -12 0 -52 13 -88 29 -37 16 -99 34 -138 40 -39 6
-101 22 -138 36 -36 14 -76 25 -89 25 -12 0 -49 12 -82 26 -33 15 -100 34
-150 44 -49 10 -119 28 -155 40 -36 11 -76 24 -90 28 -39 11 -36 40 7 84 l38
39 0 129 0 129 -29 30 c-25 26 -85 54 -106 50 -3 -1 -20 -5 -39 -9z m-237
-315 c9 -14 30 -27 51 -31 34 -6 34 -6 20 -35 -8 -15 -15 -34 -15 -42 0 -8
-13 -28 -29 -44 -20 -22 -31 -45 -36 -81 -4 -33 -14 -57 -30 -72 -13 -12 -29
-44 -35 -70 -7 -27 -22 -57 -36 -69 -13 -11 -24 -30 -24 -40 0 -11 -12 -33
-26 -50 -27 -33 -44 -79 -44 -123 0 -16 -4 -28 -10 -28 -5 0 -10 -5 -10 -12 0
-6 7 -4 18 5 10 10 31 17 46 17 18 0 30 7 38 25 6 14 22 32 35 40 12 9 23 21
23 29 0 23 239 254 270 261 32 7 134 -13 250 -50 41 -14 104 -29 139 -34 34
-6 79 -20 99 -31 20 -12 68 -28 107 -35 38 -8 97 -23 129 -35 33 -11 89 -25
124 -31 36 -5 83 -20 106 -33 23 -13 73 -29 111 -36 39 -6 90 -20 114 -31 23
-10 71 -24 105 -30 44 -7 73 -19 97 -40 19 -16 39 -29 45 -29 6 0 21 -11 34
-25 14 -15 48 -32 80 -41 30 -8 78 -24 105 -35 28 -10 75 -23 105 -29 30 -6
66 -19 80 -30 14 -11 39 -27 55 -36 17 -9 41 -26 55 -39 14 -12 39 -25 55 -29
17 -4 53 -18 80 -31 28 -13 69 -29 92 -35 23 -6 55 -21 70 -34 15 -13 43 -31
61 -40 17 -9 32 -21 32 -27 0 -5 17 -17 38 -26 20 -8 52 -28 70 -44 18 -16 39
-29 46 -29 7 0 21 -9 32 -21 10 -12 39 -32 64 -45 88 -48 142 -90 243 -190 39
-37 78 -66 102 -74 22 -7 60 -23 85 -36 25 -13 53 -24 63 -24 20 0 148 -129
180 -182 75 -122 93 -139 213 -214 45 -27 98 -90 113 -134 6 -19 24 -46 39
-61 41 -39 122 -130 138 -155 9 -12 17 -59 21 -110 5 -76 10 -96 35 -134 l29
-45 -3 -212 c-3 -203 -4 -212 -25 -235 -13 -13 -30 -44 -38 -69 -9 -24 -36
-69 -61 -99 -24 -30 -55 -78 -69 -107 -13 -28 -28 -54 -34 -57 -5 -3 -17 -28
-27 -54 -22 -59 -58 -99 -109 -122 -22 -10 -94 -68 -160 -130 -66 -62 -136
-119 -155 -128 -43 -18 -94 -57 -187 -144 -40 -38 -77 -68 -82 -68 -6 0 -19
-8 -29 -18 -35 -35 -158 -95 -221 -108 -35 -8 -74 -22 -85 -33 -12 -10 -37
-27 -56 -36 -19 -10 -39 -24 -43 -31 -4 -7 -27 -22 -50 -32 -23 -11 -51 -29
-61 -41 -11 -11 -25 -21 -32 -21 -6 0 -31 -16 -54 -35 -23 -19 -47 -35 -54
-35 -6 0 -28 -11 -47 -25 -20 -13 -63 -30 -96 -38 -64 -14 -130 -51 -193 -105
-20 -17 -42 -32 -48 -32 -6 0 -19 -11 -29 -24 -10 -13 -34 -31 -53 -41 -19
-10 -45 -26 -58 -35 -12 -10 -46 -24 -75 -30 -28 -7 -70 -23 -92 -36 -22 -12
-60 -28 -85 -34 -25 -7 -52 -18 -61 -26 -9 -8 -39 -24 -67 -34 -27 -11 -67
-31 -87 -45 -21 -14 -44 -25 -53 -25 -8 0 -38 -13 -66 -29 -28 -16 -67 -32
-86 -36 -19 -4 -53 -17 -75 -30 -22 -13 -67 -30 -99 -38 -32 -9 -66 -23 -76
-32 -10 -9 -44 -23 -76 -32 -32 -8 -77 -25 -99 -38 -22 -13 -56 -26 -75 -30
-19 -4 -54 -18 -76 -31 -23 -13 -63 -28 -89 -34 -26 -6 -60 -19 -75 -30 -15
-11 -49 -24 -76 -31 -27 -6 -86 -22 -131 -35 -45 -14 -117 -29 -160 -34 -92
-12 -112 -18 -135 -37 -9 -8 -42 -21 -74 -30 -32 -8 -77 -25 -99 -38 -22 -13
-71 -29 -110 -36 -38 -6 -88 -18 -110 -26 -22 -8 -96 -21 -164 -28 -86 -10
-133 -20 -157 -34 -19 -11 -60 -28 -92 -37 -31 -9 -75 -27 -97 -39 -22 -13
-62 -27 -90 -31 -27 -3 -78 -15 -112 -26 -35 -10 -134 -27 -220 -38 -87 -10
-176 -25 -198 -33 -67 -24 -150 -30 -365 -28 -228 2 -325 -8 -433 -41 -69 -22
-87 -23 -392 -23 -282 0 -325 2 -363 18 -77 31 -135 39 -352 47 -181 6 -223
10 -265 27 -27 11 -90 26 -139 32 -48 7 -117 23 -152 36 -35 13 -106 29 -158
34 -53 6 -113 18 -133 26 -21 8 -67 21 -103 30 -36 9 -81 27 -100 40 -19 14
-51 30 -70 36 -19 7 -49 22 -67 34 -19 14 -62 27 -108 34 -75 11 -217 61 -244
87 -21 19 -7 39 39 54 36 12 46 21 63 60 11 25 28 55 39 66 13 14 23 47 29 95
8 51 18 84 35 106 13 17 29 55 35 85 6 29 21 71 34 93 12 22 26 56 30 75 4 19
18 51 32 71 13 21 31 65 39 100 8 34 23 76 33 93 11 17 24 60 31 96 6 36 19
76 29 90 10 14 21 36 25 48 4 13 20 36 34 52 15 15 37 40 49 55 47 55 83 11
83 -100 -1 -91 -12 -137 -44 -176 -19 -23 -26 -42 -26 -74 0 -53 -14 -92 -43
-123 -19 -20 -22 -35 -22 -102 0 -74 2 -81 30 -110 56 -58 113 -49 145 25 10
24 28 57 39 72 10 16 22 49 26 75 5 37 13 51 40 73 24 17 35 34 35 51 0 36 17
64 39 64 39 0 43 -84 7 -127 -23 -27 -24 -39 -31 -205 -9 -212 -4 -256 35
-298 57 -61 128 -29 149 69 6 29 20 65 31 78 11 14 20 32 20 39 0 8 16 31 35
52 24 27 38 56 46 93 6 30 20 66 30 80 10 14 23 48 29 74 6 26 22 61 35 76 13
16 29 54 35 86 7 32 21 73 32 91 11 19 27 65 34 103 7 38 22 82 33 97 11 15
25 57 31 92 6 36 22 83 34 105 13 22 26 56 30 75 3 19 19 54 35 77 16 24 32
64 36 90 4 26 17 66 30 88 13 22 26 63 30 90 11 82 24 114 50 121 20 5 24 14
30 64 4 33 13 64 20 70 21 17 36 -13 33 -67 -2 -38 -7 -50 -25 -58 -21 -9 -22
-14 -20 -160 1 -149 1 -150 -30 -215 -17 -36 -34 -85 -38 -110 -4 -25 -18 -64
-31 -88 -13 -24 -28 -71 -34 -105 -6 -34 -22 -80 -35 -102 -21 -37 -23 -55
-27 -215 -4 -171 -5 -177 -35 -240 -17 -36 -34 -85 -37 -110 -4 -25 -19 -67
-33 -95 -23 -44 -27 -65 -32 -187 -6 -132 -7 -138 -34 -166 -25 -26 -27 -35
-27 -108 0 -74 2 -81 31 -111 51 -56 115 -43 143 28 17 43 36 71 93 138 18 21
37 59 44 86 6 28 22 68 34 90 12 22 25 57 29 77 4 21 18 51 32 67 14 17 29 53
36 88 6 32 21 76 33 98 13 22 28 56 34 76 6 20 23 47 36 59 14 13 25 29 25 36
0 7 13 29 30 47 19 22 34 54 41 88 6 30 22 72 34 94 13 22 28 68 33 102 6 34
20 75 31 90 12 17 25 59 32 103 11 73 29 110 55 110 15 0 23 38 27 125 2 54 5
61 30 73 26 12 27 17 27 83 0 74 11 109 35 109 21 0 35 -33 34 -82 -1 -62 -12
-92 -36 -103 -26 -11 -33 -32 -33 -105 0 -57 -19 -100 -44 -100 -11 0 -13 -33
-12 -157 1 -154 0 -159 -26 -203 -14 -25 -32 -75 -38 -110 -6 -36 -21 -80 -32
-98 -12 -19 -27 -64 -35 -100 -7 -37 -23 -82 -35 -102 -18 -29 -23 -55 -27
-161 -6 -117 -8 -128 -35 -170 -26 -39 -30 -55 -36 -151 -6 -99 -8 -110 -33
-136 -22 -23 -27 -38 -27 -77 0 -42 5 -55 46 -104 53 -65 85 -85 122 -76 37 8
190 157 204 198 6 18 21 46 34 64 13 17 29 55 35 85 6 29 22 73 34 98 13 25
30 61 39 80 16 34 40 71 90 138 13 18 29 60 36 96 8 44 19 71 36 87 17 15 24
34 24 58 1 56 16 111 39 135 11 12 24 37 27 56 10 52 31 82 57 78 20 -3 22 -9
22 -74 0 -62 -3 -74 -27 -103 -20 -23 -28 -44 -28 -69 0 -52 -16 -101 -42
-129 -20 -21 -22 -36 -28 -188 -5 -152 -8 -167 -29 -196 -20 -27 -34 -88 -41
-180 0 -3 -13 -23 -30 -44 -29 -36 -30 -42 -30 -138 0 -88 3 -105 22 -133 13
-18 33 -38 47 -44 36 -16 88 4 108 43 8 18 29 47 44 65 16 18 29 38 29 44 0 6
27 41 60 78 44 50 62 80 71 116 6 27 22 67 34 89 12 22 26 63 30 91 3 29 20
78 36 110 16 33 29 64 29 71 0 6 16 30 35 53 19 23 35 47 35 53 0 6 12 23 26
38 17 18 32 51 41 91 8 35 23 77 33 93 10 17 26 64 34 104 9 41 22 81 30 90 7
9 19 34 26 56 7 22 26 55 41 73 16 18 29 39 29 48 0 8 16 30 35 50 25 25 35
43 35 67 0 60 19 106 45 113 24 6 25 10 25 85 0 65 3 82 20 99 12 12 26 17 36
13 14 -5 16 -18 12 -86 -4 -71 -8 -83 -30 -101 -23 -19 -26 -30 -30 -106 -4
-66 -11 -95 -30 -131 -23 -42 -25 -60 -30 -211 -5 -147 -9 -171 -32 -231 -15
-36 -31 -94 -37 -129 -6 -35 -21 -81 -34 -104 -18 -31 -26 -63 -31 -133 -6
-77 -11 -99 -33 -129 -24 -34 -26 -47 -29 -158 -3 -118 -3 -121 23 -152 22
-26 34 -32 66 -32 32 0 46 7 88 48 27 26 59 68 70 93 10 26 24 50 30 53 6 4
20 26 31 49 22 45 53 93 94 143 14 17 32 59 40 92 8 34 23 76 34 94 11 18 25
64 31 102 6 42 18 77 29 90 11 11 22 35 26 51 14 61 28 85 51 85 27 0 45 -36
45 -91 0 -46 -13 -77 -44 -101 -20 -16 -21 -25 -21 -203 l0 -187 34 -30 c30
-27 39 -30 83 -26 30 3 57 13 71 25 12 12 41 30 64 42 27 13 45 30 49 45 3 14
21 48 40 77 19 29 34 60 34 69 0 27 67 121 125 176 31 30 62 69 70 88 8 19 25
50 38 70 13 19 29 61 36 94 6 33 20 71 30 84 10 12 24 46 30 75 7 29 20 58 28
65 9 7 24 33 35 58 11 25 28 55 39 66 11 12 28 37 37 55 9 19 27 38 38 44 12
6 29 17 38 24 18 15 46 8 46 -12 0 -8 -9 -22 -20 -32 -17 -16 -20 -31 -20
-109 -1 -106 -13 -168 -41 -207 -15 -22 -22 -53 -28 -127 -6 -80 -12 -104 -31
-130 -17 -23 -26 -53 -31 -103 -5 -42 -15 -81 -26 -96 -39 -55 -43 -69 -43
-164 0 -86 2 -98 25 -129 46 -62 79 -66 124 -15 26 30 31 44 31 89 0 45 4 58
29 83 16 17 32 46 36 64 15 69 64 84 79 24 3 -13 20 -40 37 -60 24 -27 39 -35
65 -35 36 0 84 36 84 63 0 20 78 135 99 147 11 5 25 27 31 47 7 21 24 53 37
71 21 28 26 49 31 119 4 74 9 90 31 117 15 17 34 48 44 69 9 20 21 37 26 37
15 0 23 31 31 117 6 72 10 86 38 118 18 19 32 42 32 49 0 7 11 23 24 36 14 12
32 43 41 68 8 25 23 55 34 66 10 12 24 50 31 86 7 39 21 75 36 93 13 16 24 38
24 50 0 49 20 92 50 109 28 16 30 20 30 81 0 68 16 104 42 94 38 -14 32 -147
-8 -185 -18 -17 -24 -34 -24 -65 0 -55 -15 -105 -38 -131 -16 -17 -21 -43 -26
-145 -5 -113 -9 -128 -36 -176 -25 -45 -30 -63 -30 -122 0 -93 -7 -125 -36
-158 -28 -33 -38 -78 -32 -146 12 -119 140 -157 177 -53 14 40 28 61 93 139
23 29 40 62 47 96 7 29 20 66 30 83 11 17 24 51 31 76 6 25 20 54 30 65 10 11
26 40 37 65 11 25 30 54 42 64 11 11 21 25 21 32 0 7 13 29 30 47 19 22 34 54
41 88 6 30 22 72 34 94 13 22 28 68 33 103 6 34 20 75 30 90 11 15 25 50 31
79 7 29 20 58 28 65 8 7 25 36 38 64 13 29 31 56 41 62 9 5 22 24 28 42 23 69
76 62 76 -10 0 -25 -9 -50 -27 -76 l-28 -39 0 -217 0 -217 29 -30 c51 -53 81
-45 177 46 51 49 90 97 105 128 27 57 62 107 98 140 14 13 28 40 31 61 9 50
70 179 93 196 52 39 100 107 111 159 7 29 19 61 27 70 8 9 22 43 31 75 8 32
25 71 38 86 13 15 27 42 30 60 4 18 20 51 35 73 16 22 31 54 35 72 3 17 13 37
21 44 9 7 24 30 35 50 10 21 28 40 39 44 13 4 23 21 30 48 16 63 18 67 36 74
53 20 66 -97 17 -149 l-28 -29 0 -238 0 -237 25 -31 c59 -75 134 -68 236 23
40 35 77 64 82 64 6 0 23 11 39 24 15 13 46 32 68 42 30 14 43 29 55 59 22 58
43 86 156 204 55 58 107 122 114 141 19 50 41 77 166 206 86 88 117 114 137
114 16 0 30 -8 37 -19 6 -12 10 -115 10 -265 l0 -244 26 -31 c14 -17 30 -47
36 -68 11 -41 67 -103 93 -103 9 0 32 15 51 34 30 30 34 40 34 84 0 40 -6 57
-26 81 -14 17 -29 45 -35 63 -5 18 -9 141 -9 274 l0 241 -24 22 c-13 12 -29
42 -35 65 -7 30 -22 51 -50 74 -36 29 -46 32 -108 32 -68 0 -69 -1 -110 -42
-22 -24 -45 -56 -50 -73 -6 -16 -65 -86 -132 -153 -88 -90 -123 -134 -131
-160 -7 -26 -47 -77 -135 -172 -72 -78 -127 -146 -130 -162 -6 -26 -66 -88
-85 -88 -5 0 -25 -14 -45 -31 -62 -55 -85 -21 -85 126 0 85 2 96 25 123 42 50
45 73 45 318 l0 235 -42 39 c-35 32 -51 40 -82 40 -34 0 -46 -7 -112 -74 -66
-66 -74 -78 -74 -112 0 -56 -18 -112 -40 -124 -10 -5 -24 -27 -31 -47 -6 -21
-24 -52 -38 -70 -69 -83 -89 -110 -95 -130 -13 -40 -29 -45 -98 -33 -35 7 -72
14 -83 16 -11 2 -39 21 -62 43 l-43 39 0 208 c0 115 -4 214 -8 219 -16 24 -72
56 -84 49 -55 -33 -78 -61 -78 -94 -1 -58 -17 -111 -43 -139 -14 -14 -28 -36
-31 -48 -4 -11 -14 -24 -22 -27 -24 -9 -106 15 -141 41 -17 13 -49 29 -70 35
-21 5 -47 18 -58 28 -11 10 -45 28 -77 40 -31 11 -62 27 -68 35 -7 8 -29 19
-50 25 -21 6 -71 36 -111 69 -41 32 -91 64 -111 70 -20 7 -42 18 -48 26 -6 8
-33 22 -58 31 -26 10 -58 26 -72 36 -14 10 -56 24 -95 31 -66 11 -71 14 -81
45 -5 17 -15 37 -21 43 -8 8 -372 9 -538 0 -5 0 -71 2 -146 5 -171 7 -179 4
-179 -71 0 -53 -4 -61 -44 -89 -16 -11 -17 -17 -7 -48 18 -53 43 -71 109 -75
66 -5 108 -19 116 -38 6 -17 68 -35 122 -35 31 0 51 -8 80 -31 38 -30 42 -31
121 -27 68 2 85 7 105 26 30 27 72 28 105 2 14 -11 44 -23 65 -26 22 -4 53
-17 71 -30 18 -13 46 -30 62 -38 17 -8 41 -25 53 -39 13 -14 40 -28 60 -32 21
-3 55 -17 77 -30 23 -13 70 -29 105 -35 36 -6 80 -21 98 -32 19 -12 64 -27
100 -35 36 -7 79 -22 97 -33 17 -11 54 -24 82 -30 28 -6 66 -22 84 -36 18 -13
52 -29 74 -35 22 -6 46 -16 53 -21 18 -16 15 -59 -9 -97 -11 -18 -25 -59 -30
-90 -6 -31 -20 -72 -31 -91 -11 -19 -27 -66 -35 -105 -8 -38 -25 -86 -39 -106
-13 -19 -24 -40 -24 -47 0 -6 -13 -26 -28 -44 -16 -18 -34 -47 -41 -65 -7 -17
-23 -41 -37 -54 -13 -12 -24 -28 -24 -35 0 -6 -13 -37 -30 -69 -16 -31 -35
-86 -41 -121 -7 -40 -20 -76 -34 -92 -15 -18 -26 -51 -33 -101 -8 -54 -17 -80
-35 -100 -14 -14 -29 -39 -34 -55 -12 -40 -36 -54 -58 -36 -24 20 -16 103 14
134 17 18 25 44 32 97 7 56 15 79 34 99 24 25 25 32 25 136 0 137 14 220 42
258 17 24 22 49 28 135 6 109 9 121 42 157 15 17 21 43 25 117 l6 95 -39 40
c-26 28 -51 43 -76 48 -33 5 -41 2 -82 -36 -30 -27 -50 -56 -56 -81 -6 -21
-21 -51 -34 -66 -15 -18 -25 -47 -29 -82 -5 -42 -15 -65 -49 -110 -23 -31 -53
-66 -65 -78 -13 -12 -23 -31 -23 -41 0 -11 -12 -37 -27 -58 -24 -35 -27 -52
-34 -161 -7 -112 -10 -128 -38 -177 -17 -29 -31 -60 -31 -68 0 -9 -11 -32 -25
-53 -14 -20 -32 -69 -41 -108 -8 -40 -25 -88 -38 -107 -13 -19 -27 -48 -31
-64 -3 -17 -16 -43 -28 -60 -12 -16 -27 -43 -33 -60 -14 -39 -38 -55 -61 -40
-15 10 -18 27 -18 117 0 96 2 108 25 139 20 27 25 48 30 118 4 64 10 93 25
114 40 57 45 72 45 148 0 76 0 77 -37 107 -21 17 -43 31 -50 31 -30 0 -84 -65
-96 -115 -10 -43 -15 -50 -37 -50 -25 0 -36 20 -54 106 -4 18 -19 32 -55 48
-57 27 -61 36 -61 145 0 72 -2 81 -29 111 -16 18 -31 50 -34 73 -4 23 -21 57
-39 80 -46 57 -83 120 -97 164 -7 21 -17 40 -22 44 -5 3 -20 26 -33 52 -13 26
-43 65 -66 87 -44 41 -101 120 -134 184 -10 20 -46 66 -80 102 -127 138 -137
158 -96 201 19 19 30 41 30 59 0 16 1 32 3 36 1 4 -5 9 -14 11 -8 1 -41 -21
-72 -50 -42 -40 -57 -62 -63 -91 -5 -31 -26 -57 -115 -146 -60 -59 -109 -113
-109 -120 0 -6 -16 -11 -39 -11 -44 0 -55 -10 -69 -62 -10 -35 -52 -81 -156
-170 l-29 -24 20 -45 c11 -24 27 -50 36 -58 25 -20 21 -58 -7 -76 -14 -10 -27
-30 -30 -51 -4 -19 -20 -49 -35 -67 -16 -17 -32 -43 -36 -57 -4 -14 -18 -43
-30 -65 -13 -22 -26 -65 -30 -95 -4 -36 -16 -69 -35 -95 -15 -22 -31 -55 -35
-73 -3 -18 -17 -45 -30 -60 -13 -15 -28 -46 -34 -68 -6 -23 -20 -53 -31 -67
-11 -14 -27 -58 -35 -98 -9 -40 -24 -87 -35 -105 -11 -17 -25 -58 -31 -90 -6
-33 -21 -77 -33 -99 -13 -22 -28 -69 -34 -104 -7 -37 -22 -80 -37 -101 -14
-20 -25 -41 -25 -48 0 -6 -13 -26 -29 -44 -15 -18 -36 -49 -46 -68 -9 -19 -24
-43 -32 -52 -9 -9 -22 -47 -29 -84 -8 -37 -23 -81 -33 -98 -10 -17 -26 -63
-34 -102 -9 -39 -27 -88 -41 -109 -14 -21 -26 -43 -26 -50 0 -6 -13 -24 -29
-39 -15 -15 -34 -45 -40 -67 -24 -79 -73 -57 -75 34 0 43 5 63 26 93 14 22 31
68 38 104 6 36 20 79 31 96 10 17 25 63 34 103 8 40 24 85 34 100 11 15 26 65
35 112 8 46 23 104 34 129 11 25 25 78 31 119 7 46 20 86 34 105 20 28 23 47
28 186 6 149 7 157 37 214 18 32 32 69 32 82 0 12 12 37 28 55 25 31 27 41 33
153 4 67 10 131 14 143 6 18 2 24 -17 32 -13 5 -30 16 -37 25 -20 24 -49 20
-91 -14 -27 -21 -41 -42 -48 -73 -6 -24 -21 -52 -32 -62 -11 -10 -25 -37 -31
-59 -6 -22 -24 -56 -40 -74 -16 -18 -29 -40 -29 -50 0 -10 -11 -34 -25 -54
-14 -20 -32 -70 -40 -109 -9 -40 -24 -87 -35 -105 -11 -17 -25 -58 -31 -90 -6
-33 -20 -75 -31 -94 -11 -19 -27 -66 -35 -105 -8 -38 -23 -83 -33 -100 -10
-17 -26 -64 -34 -104 -9 -41 -22 -81 -30 -90 -7 -9 -23 -34 -34 -57 -11 -22
-28 -46 -37 -54 -9 -7 -23 -29 -31 -49 -8 -20 -23 -45 -34 -56 -10 -11 -25
-52 -33 -90 -8 -39 -24 -86 -35 -105 -11 -19 -25 -62 -31 -95 -6 -32 -22 -76
-36 -97 -14 -21 -25 -42 -25 -47 0 -6 -13 -25 -29 -43 -15 -18 -34 -50 -40
-70 -7 -20 -19 -42 -28 -49 -13 -11 -18 -10 -33 9 -39 48 -33 228 10 298 13
19 29 67 36 105 7 38 22 82 33 97 11 15 25 57 31 92 6 36 22 84 36 107 21 36
24 54 24 140 0 129 14 220 39 253 11 15 25 56 32 91 6 36 24 83 40 108 16 25
29 49 29 55 0 7 29 36 64 66 40 34 68 67 76 89 7 20 20 45 30 56 10 11 25 35
34 53 10 18 23 35 31 38 15 6 29 45 40 109 4 22 15 49 26 61 10 11 27 43 36
70 13 37 32 63 71 97 29 26 59 47 68 47 8 0 30 15 49 33 43 41 111 83 166 102
24 9 50 22 59 29 8 8 29 18 45 22 17 4 45 20 63 36 18 15 37 28 43 28 5 0 63
55 129 123 65 67 132 136 148 152 17 17 33 45 37 64 8 39 75 108 114 118 48
12 71 34 83 80 6 25 23 58 38 73 18 18 30 44 34 74 5 30 14 49 27 56 21 12 25
50 7 68 -18 18 -105 15 -120 -4 -7 -9 -30 -34 -50 -56 -21 -21 -38 -44 -38
-50 0 -19 -202 -209 -239 -225 -31 -13 -32 -15 -17 -32 9 -10 16 -28 16 -41 0
-25 -26 -60 -45 -60 -6 0 -43 -25 -81 -55 -38 -30 -82 -61 -99 -68 -16 -8 -56
-33 -89 -55 -32 -23 -63 -39 -67 -36 -15 9 -10 61 7 75 8 7 21 24 29 38 7 14
61 74 119 132 115 116 127 140 105 203 -12 35 -19 41 -44 44 -22 2 -37 -4 -55
-23 -16 -17 -34 -25 -56 -25 -45 0 -84 -16 -84 -35 0 -8 -37 -54 -81 -103 -45
-48 -88 -102 -96 -120 -8 -19 -37 -63 -64 -98 -28 -36 -58 -84 -69 -108 -10
-24 -23 -47 -29 -51 -6 -3 -20 -24 -31 -46 -23 -45 -46 -50 -60 -13 -18 46
-11 89 21 137 24 37 31 60 36 119 5 61 11 78 34 105 29 33 46 91 35 118 -9 24
-60 18 -84 -10 -14 -16 -33 -25 -54 -26 -161 -5 -179 -8 -214 -39 l-35 -30
-159 0 -160 0 -17 -27 c-10 -15 -44 -54 -75 -87 -64 -65 -76 -99 -58 -164 9
-34 18 -46 51 -63 59 -30 92 -19 159 52 45 47 64 60 105 70 28 6 57 18 66 25
19 17 49 18 49 3 0 -7 -8 -17 -17 -24 -13 -9 -19 -34 -24 -89 -4 -59 -11 -82
-27 -99 -12 -13 -26 -45 -31 -71 -5 -26 -19 -58 -32 -72 -20 -22 -25 -39 -30
-119 -5 -82 -10 -99 -34 -130 -15 -20 -32 -53 -37 -73 -6 -20 -21 -50 -34 -65
-13 -16 -24 -34 -24 -42 0 -7 -14 -39 -31 -71 -17 -33 -35 -84 -41 -114 -5
-30 -20 -73 -32 -95 -13 -22 -28 -68 -34 -103 -6 -35 -20 -78 -31 -96 -12 -18
-27 -64 -35 -103 -9 -39 -24 -86 -36 -105 -11 -19 -25 -61 -31 -94 -6 -32 -20
-75 -31 -94 -11 -19 -27 -66 -35 -105 -8 -38 -24 -86 -36 -105 -12 -19 -29
-48 -38 -65 -18 -37 -49 -39 -66 -5 -28 55 -11 257 26 309 10 14 25 56 31 91
7 36 23 83 35 105 12 22 28 70 35 108 7 37 22 79 34 94 19 24 22 45 27 184 6
150 7 159 35 205 28 48 29 51 32 229 l4 180 29 33 c28 31 29 37 29 126 l0 93
-42 34 c-60 47 -101 46 -152 -4 -21 -21 -43 -55 -48 -75 -6 -20 -21 -49 -34
-64 -13 -17 -25 -48 -29 -76 -6 -44 -16 -73 -50 -132 -7 -14 -22 -43 -33 -65
-10 -22 -25 -53 -34 -70 -8 -16 -29 -57 -46 -90 -16 -33 -35 -86 -41 -119 -6
-32 -20 -72 -30 -90 -11 -17 -27 -64 -35 -104 -8 -40 -24 -84 -35 -99 -12 -14
-26 -44 -32 -66 -6 -22 -19 -52 -30 -66 -10 -14 -25 -59 -34 -100 -8 -40 -24
-85 -34 -100 -11 -14 -22 -49 -26 -76 -11 -80 -24 -123 -39 -128 -22 -9 -35
14 -47 79 -14 77 -3 175 28 249 22 52 26 81 33 226 6 152 9 169 33 210 14 24
30 71 36 103 6 33 21 75 33 95 19 31 23 56 28 172 5 131 7 139 35 179 29 42
30 46 33 188 2 79 1 155 -2 168 -8 31 -70 77 -93 70 -10 -4 -31 -18 -48 -33
-26 -22 -30 -35 -36 -94 -4 -52 -12 -74 -31 -98 -19 -22 -27 -46 -33 -95 -5
-51 -13 -74 -33 -98 -25 -29 -27 -40 -33 -157 -6 -127 -17 -171 -44 -171 -30
0 -39 45 -45 208 l-5 164 -30 24 c-37 30 -50 30 -99 -1 -62 -38 -106 -100
-106 -149 0 -56 -15 -105 -41 -132 -15 -16 -23 -43 -29 -95 -7 -62 -12 -76
-34 -92 -14 -10 -26 -25 -26 -32 0 -7 -14 -39 -31 -71 -16 -32 -36 -86 -43
-120 -7 -34 -23 -79 -36 -99 -20 -33 -24 -54 -29 -190 -6 -145 -8 -154 -34
-192 -15 -22 -40 -53 -56 -69 -66 -67 -100 -122 -110 -179 -6 -32 -20 -71 -30
-89 -11 -17 -25 -62 -31 -100 -13 -85 -24 -106 -54 -106 -21 0 -24 6 -30 61
-17 165 -1 340 36 413 19 36 23 64 28 216 6 157 9 181 32 235 14 33 31 97 37
142 6 46 19 100 30 121 10 21 26 77 34 124 10 57 23 99 39 120 22 31 23 43 26
218 l4 185 29 37 c28 36 29 39 29 156 l0 120 -34 26 c-44 33 -50 33 -96 -4
-35 -28 -38 -34 -44 -102 -6 -61 -12 -78 -36 -103 -27 -29 -29 -34 -32 -146
-3 -106 -5 -119 -30 -156 -22 -33 -29 -60 -37 -137 -7 -69 -15 -104 -30 -125
-12 -16 -28 -62 -36 -102 -9 -40 -24 -86 -34 -103 -11 -17 -24 -58 -31 -91 -6
-33 -22 -81 -35 -106 -13 -25 -28 -71 -34 -101 -5 -31 -21 -78 -35 -105 -13
-26 -27 -72 -31 -100 -4 -30 -17 -69 -31 -88 -13 -20 -27 -48 -30 -63 -4 -15
-19 -47 -34 -72 -15 -25 -31 -58 -34 -75 -9 -36 -33 -75 -47 -75 -5 0 -17 17
-26 38 -24 58 -14 218 20 302 14 36 31 96 37 135 6 38 20 85 32 103 11 18 27
65 34 102 7 38 23 83 35 99 20 28 23 46 29 188 6 148 8 161 33 204 22 38 27
58 27 115 1 89 13 140 41 171 21 21 24 36 27 127 l4 103 -38 31 c-21 18 -44
32 -50 32 -6 0 -29 -17 -52 -38 -40 -37 -42 -42 -42 -94 0 -46 -5 -61 -30 -93
-21 -26 -30 -49 -30 -74 -1 -58 -17 -111 -41 -137 -19 -20 -24 -39 -29 -119
-5 -83 -9 -98 -32 -122 -24 -26 -26 -36 -31 -157 -5 -117 -8 -132 -32 -166
-17 -24 -30 -62 -37 -106 -12 -80 -21 -100 -47 -109 -15 -4 -21 -19 -26 -59
-8 -64 -17 -79 -41 -74 -29 5 -42 79 -20 113 9 14 23 25 30 25 11 0 14 34 18
158 4 147 6 160 30 202 14 25 31 76 38 114 7 47 19 79 36 99 23 27 24 35 24
170 1 161 9 208 42 244 21 22 23 35 27 144 2 66 0 130 -3 143 -6 25 -62 66
-87 66 -8 -1 -29 -14 -48 -30 -30 -25 -34 -36 -41 -99 -6 -53 -14 -78 -33
-100 -16 -20 -27 -48 -31 -85 -5 -34 -17 -70 -33 -93 -19 -28 -28 -57 -33
-111 -6 -59 -12 -78 -33 -100 -15 -15 -32 -43 -38 -62 -7 -19 -22 -48 -34 -65
-12 -16 -25 -43 -29 -60 -4 -16 -18 -46 -31 -65 -15 -22 -28 -63 -35 -109 -11
-76 -22 -101 -45 -101 -23 0 -37 56 -42 170 -8 164 2 242 35 282 26 31 27 36
32 199 5 158 6 169 28 192 33 35 41 82 42 236 l0 133 -37 34 c-20 19 -44 34
-52 34 -9 0 -33 -16 -54 -35 -37 -34 -37 -34 -37 -114 0 -85 -10 -126 -40
-153 -13 -13 -20 -39 -25 -108 -9 -109 -31 -143 -69 -105 -22 23 -27 81 -24
278 l3 178 -35 29 c-35 29 -70 39 -70 20 0 -6 -16 -20 -35 -31 -32 -19 -35
-25 -35 -69 0 -56 -13 -96 -40 -125 -11 -11 -23 -47 -29 -81 -10 -63 -45 -125
-105 -184 -22 -22 -26 -35 -26 -83 0 -48 -4 -61 -30 -90 -28 -33 -30 -40 -30
-118 -1 -134 -24 -199 -59 -164 -38 38 -32 237 9 280 14 15 25 45 32 94 6 43
20 85 33 104 12 18 27 62 34 97 7 36 21 80 31 100 9 19 23 53 30 75 7 22 20
49 30 60 10 11 27 39 39 62 12 23 30 47 40 53 11 5 23 20 27 32 7 23 50 91
101 161 15 21 54 65 87 98 63 65 113 131 147 193 24 45 272 296 293 296 7 0
33 16 57 35 24 19 56 37 72 41 15 3 40 16 55 29 15 13 46 28 69 34 23 6 45 16
49 22 4 6 32 22 62 36 31 13 61 31 66 38 11 14 42 38 121 92 22 15 55 40 73
55 18 15 39 28 47 28 7 0 26 11 42 24 15 13 46 29 68 36 22 7 50 21 61 32 12
11 43 26 70 34 26 8 57 23 68 33 12 10 39 24 61 31 22 7 54 23 70 36 17 12 50
28 75 34 25 7 63 22 85 35 22 13 56 26 75 30 19 4 60 19 90 35 30 15 71 30 91
34 21 4 48 15 61 25 13 10 47 26 77 35 29 8 67 24 85 35 18 11 57 26 87 32 30
6 75 22 101 35 26 13 79 29 118 34 40 6 93 19 118 30 26 11 79 26 117 34 39 7
95 25 125 40 65 30 128 34 160 8 l22 -17 -21 -19 c-49 -44 0 -146 70 -146 33
0 89 25 89 40 0 5 19 19 43 31 23 12 49 27 57 35 9 7 34 20 56 27 22 8 56 26
77 40 20 14 56 28 80 32 23 4 60 18 83 31 51 30 121 32 155 5 35 -27 94 -41
179 -41 73 0 90 -5 142 -43 18 -12 53 -19 123 -24 79 -5 102 -10 124 -28 14
-12 48 -29 75 -38 28 -10 59 -26 70 -36 14 -13 47 -23 95 -30 51 -7 80 -16 96
-31 12 -11 39 -26 60 -31 39 -11 149 -81 162 -103 5 -7 20 -21 34 -30 15 -9
32 -30 39 -46 16 -38 35 -38 55 0 9 17 22 30 30 30 9 0 24 14 34 31 10 17 28
37 39 45 24 17 19 40 -10 50 -11 3 -50 35 -87 70 -38 35 -86 71 -107 80 -22 9
-51 25 -66 35 -15 11 -45 26 -67 34 -22 7 -53 23 -68 34 -16 12 -56 25 -95 30
-45 6 -78 17 -100 34 -18 14 -50 30 -72 36 -21 5 -47 17 -57 27 -10 9 -53 24
-96 33 -58 12 -79 20 -81 33 -2 12 6 21 23 28 17 6 262 10 665 10 623 0 638 0
661 -20 l24 -20 -22 -17 c-12 -10 -34 -26 -48 -36 -25 -18 -33 -51 -15 -62 25
-15 111 9 162 46 80 58 88 66 88 99 0 18 8 37 20 48 11 9 31 27 43 38 12 12
38 25 57 28 61 13 67 16 78 41 6 13 22 27 35 30 14 4 29 17 36 31 15 34 72 34
95 -1z m-961 -2596 c39 -13 117 -88 117 -113 0 -8 17 -35 38 -60 64 -78 79
-101 96 -140 9 -21 27 -51 41 -68 32 -37 31 -51 -1 -77 -22 -17 -28 -32 -34
-93 -6 -52 -13 -77 -27 -88 -11 -8 -38 -53 -60 -100 -33 -70 -42 -99 -46 -163
-4 -58 -12 -89 -30 -120 -14 -24 -31 -72 -37 -107 -6 -35 -22 -82 -35 -105
-13 -22 -26 -64 -30 -92 -4 -33 -18 -69 -36 -95 -16 -24 -29 -49 -29 -56 0 -7
-11 -24 -25 -38 -14 -14 -35 -44 -46 -67 -12 -23 -27 -49 -35 -57 -7 -9 -20
-46 -27 -82 -8 -36 -23 -81 -35 -100 -11 -18 -26 -62 -32 -98 -7 -40 -23 -82
-41 -109 -16 -25 -29 -50 -29 -56 0 -6 -11 -22 -24 -34 -13 -12 -31 -42 -40
-66 -10 -24 -24 -46 -33 -49 -31 -12 -45 18 -50 111 -7 112 9 235 40 310 14
32 27 85 31 118 4 35 17 77 31 101 14 24 29 73 36 115 6 41 20 94 32 119 17
37 21 74 27 206 6 152 8 164 37 225 17 35 34 77 38 93 3 16 17 43 31 59 15 17
24 41 24 62 0 39 13 51 71 68 76 22 80 39 77 329 -3 238 -4 247 -25 277 -25
33 -31 66 -10 57 6 -2 29 -10 50 -17z m2798 -424 c23 -20 50 -40 60 -46 23
-12 24 -27 4 -49 -8 -9 -19 -40 -25 -68 -13 -70 -27 -95 -100 -177 -83 -94
-89 -103 -100 -169 -6 -37 -19 -69 -38 -93 -17 -21 -33 -48 -36 -60 -4 -11
-14 -24 -23 -27 -27 -11 -48 20 -48 69 0 34 6 50 28 72 25 27 27 35 28 119 0
119 11 180 37 207 12 12 28 53 37 92 9 39 23 77 31 86 8 8 14 20 14 25 0 5 7
20 16 32 23 33 64 28 115 -13z m-2290 -198 c7 -18 48 -68 89 -113 42 -44 91
-99 109 -121 18 -22 54 -50 81 -63 28 -13 50 -26 50 -30 0 -3 -24 -31 -54 -61
-48 -50 -54 -62 -60 -112 -5 -34 -17 -69 -31 -89 -106 -144 -105 -142 -105
-225 0 -68 -2 -73 -44 -130 -24 -32 -53 -67 -65 -77 -12 -11 -21 -25 -21 -32
0 -7 -13 -28 -29 -46 -15 -18 -32 -43 -36 -56 -4 -13 -19 -38 -34 -55 -15 -18
-33 -47 -39 -65 -6 -18 -20 -45 -31 -60 -11 -15 -24 -57 -31 -92 -6 -36 -20
-77 -31 -92 -10 -15 -28 -51 -39 -80 -12 -31 -42 -76 -73 -110 -28 -31 -60
-68 -70 -82 -10 -14 -24 -26 -32 -26 -28 0 -37 40 -33 145 3 93 6 106 27 129
14 14 29 51 38 88 8 35 24 79 36 98 19 30 23 54 27 171 5 128 6 137 32 167 19
22 30 52 38 104 7 40 20 89 30 108 10 20 23 62 29 93 11 63 15 72 41 102 10
11 25 51 33 88 9 38 23 77 31 86 9 10 22 50 30 89 7 39 24 87 37 108 19 32 24
56 28 151 4 82 10 116 20 122 21 13 38 3 52 -32z m-3507 -250 c10 -38 7 -72
-9 -93 -15 -19 -15 -19 -30 0 -28 37 -13 132 19 120 8 -3 17 -15 20 -27z
m-1913 -254 c14 -37 -1 -97 -25 -101 -25 -5 -36 14 -36 64 0 63 41 89 61 37z
m1651 -15 c17 -32 17 -235 0 -266 -19 -33 -45 -23 -60 23 -16 47 -11 209 7
243 15 28 37 28 53 0z m-2241 -102 c14 -30 3 -95 -17 -103 -26 -10 -44 17 -44
67 0 25 3 50 7 53 14 15 44 6 54 -17z m321 -53 c16 -14 18 -33 18 -137 0 -96
3 -127 16 -146 26 -38 45 -50 82 -50 26 0 44 10 87 51 31 29 56 63 60 79 4 16
18 45 33 64 15 19 35 47 45 61 22 31 41 32 61 3 23 -33 20 -59 -16 -112 -30
-47 -31 -52 -37 -187 -6 -133 -7 -139 -34 -167 -26 -27 -27 -31 -27 -144 0
-114 0 -116 29 -147 21 -22 38 -31 61 -31 48 0 67 15 85 70 9 27 24 54 33 59
9 5 24 36 32 68 12 46 21 61 43 71 20 10 28 23 33 52 14 88 59 91 59 4 0 -34
-5 -49 -21 -62 -16 -13 -24 -35 -32 -89 -6 -45 -18 -82 -32 -101 -18 -24 -24
-50 -29 -126 -6 -79 -12 -103 -32 -129 -15 -20 -26 -53 -30 -91 -7 -60 -18
-76 -54 -76 -24 0 -395 370 -420 420 -22 43 -52 82 -127 164 -68 74 -126 179
-140 256 -5 30 -23 82 -39 115 -32 65 -39 144 -15 164 10 9 22 4 52 -20 34
-27 45 -30 82 -26 53 6 88 37 102 88 10 35 33 69 47 69 4 0 15 -7 25 -17z
m4682 -19 c15 -40 3 -104 -20 -104 -15 0 -18 36 -8 89 7 34 18 40 28 15z
m-3552 -466 c9 -16 13 -66 13 -158 0 -128 -1 -138 -28 -193 -16 -32 -35 -87
-43 -123 -7 -36 -23 -81 -35 -101 -19 -31 -23 -55 -28 -174 -6 -126 -8 -140
-30 -163 -13 -14 -27 -46 -32 -72 -13 -69 -34 -80 -75 -39 -14 14 -42 34 -62
45 -20 11 -55 36 -76 55 l-39 35 13 42 c9 28 35 64 73 103 67 68 70 72 86 140
7 28 19 57 27 66 8 9 21 49 30 90 8 41 24 89 35 108 11 18 26 65 35 104 8 39
23 84 33 101 11 17 22 49 26 71 9 48 30 85 50 85 8 0 20 -10 27 -22z m186
-360 c-2 -21 -8 -33 -18 -33 -19 0 -25 32 -10 50 20 24 31 17 28 -17z m3372
-145 c0 -29 -12 -63 -21 -63 -5 0 -9 18 -9 40 0 29 4 40 15 40 8 0 15 -8 15
-17z m468 -248 c-4 -29 -42 -27 -46 3 -2 13 2 30 9 38 12 14 14 14 26 -3 8
-10 12 -27 11 -38z m-1854 -111 c21 -54 -7 -135 -37 -105 -13 13 -15 75 -4
104 8 21 33 22 41 1z"/>
        <path d="M6502 5679 c2 -6 8 -10 13 -10 5 0 11 4 13 10 2 6 -4 11 -13 11 -9 0
-15 -5 -13 -11z"/>
        <path d="M7311 5634 c-17 -14 -48 -30 -68 -36 -21 -5 -51 -20 -68 -32 -16 -13
-48 -29 -69 -36 -38 -12 -139 -82 -166 -115 -12 -14 -27 -16 -100 -10 l-87 7
-34 -43 c-19 -24 -74 -85 -124 -136 -112 -115 -139 -149 -154 -194 -12 -38
-182 -211 -227 -231 -30 -14 -34 -62 -5 -78 45 -24 101 -6 101 32 0 19 28 38
56 38 9 0 35 -19 56 -42 l40 -43 406 0 c224 1 434 5 467 9 50 7 63 6 74 -8 11
-14 9 -20 -18 -45 -60 -56 -37 -91 60 -91 72 0 76 2 119 66 45 67 111 120 165
135 40 11 69 48 59 73 -9 25 -46 36 -115 36 -47 0 -63 4 -81 22 l-22 22 -476
-3 c-460 -2 -477 -2 -500 17 -20 16 -22 22 -12 35 7 9 31 18 53 22 37 6 82 38
146 101 13 14 40 24 72 29 28 4 61 15 73 24 13 10 38 26 57 36 18 9 61 43 93
75 43 41 71 60 97 65 21 4 47 19 63 36 53 58 75 35 79 -83 4 -80 6 -89 33
-117 16 -16 42 -33 58 -36 16 -4 44 -19 61 -34 82 -70 90 -73 181 -66 80 7 84
6 107 -18 20 -21 176 -85 184 -75 1 2 10 17 19 35 36 72 12 118 -82 152 -28
11 -64 28 -79 39 -15 10 -46 25 -68 32 -22 7 -53 23 -68 36 -16 13 -35 24 -42
24 -33 0 -85 35 -95 63 -5 17 -10 81 -10 144 0 110 -1 114 -27 142 -38 39 -65
51 -112 51 -28 0 -48 -8 -70 -26z"/>
        <path d="M6436 5603 c-13 -13 -6 -63 9 -63 10 0 15 10 15 29 0 30 -12 46 -24
34z"/>
        <path d="M6366 5493 c-11 -11 -6 -23 9 -23 8 0 15 4 15 9 0 13 -16 22 -24 14z"/>
        <path d="M5513 5233 c-18 -7 -16 -43 2 -43 18 0 31 28 19 39 -5 5 -15 6 -21 4z"/>
        <path d="M5394 5109 c-74 -93 -172 -188 -200 -195 -21 -5 -38 7 -119 84 -113
110 -146 132 -202 132 -73 0 -182 -104 -198 -187 -4 -20 -20 -52 -36 -71 l-29
-33 0 -152 c0 -106 4 -157 12 -165 16 -16 160 -16 176 0 8 8 12 47 12 108 0
89 2 98 24 119 14 13 30 45 36 73 19 76 55 76 78 0 8 -26 32 -58 73 -97 l60
-58 51 6 c86 11 122 48 76 80 -22 14 -22 16 -7 33 9 11 19 28 23 39 3 11 19
28 36 37 16 9 30 24 30 33 0 9 13 21 29 26 16 6 32 20 35 32 3 12 19 30 36 39
16 9 30 24 30 32 0 8 16 23 36 35 33 19 35 24 32 64 -5 66 -33 62 -94 -14z"/>
        <path d="M8258 4813 c7 -3 16 -2 19 1 4 3 -2 6 -13 5 -11 0 -14 -3 -6 -6z"/>
        <path d="M2480 4763 c-33 -30 -40 -44 -40 -74 0 -46 11 -56 140 -134 18 -11
47 -32 64 -47 20 -16 53 -30 90 -37 35 -6 69 -20 88 -36 17 -14 42 -25 59 -25
34 0 99 -25 99 -38 0 -17 51 -32 110 -32 66 0 105 -12 136 -41 17 -16 41 -21
115 -26 81 -5 100 -9 138 -34 41 -27 51 -29 145 -29 114 0 159 -10 192 -41 19
-18 40 -23 123 -28 86 -6 105 -11 139 -35 37 -25 47 -27 155 -29 125 -2 148
-12 161 -62 8 -32 52 -40 170 -31 81 5 93 9 121 35 21 20 45 31 80 36 97 13
119 78 33 99 -15 3 -41 21 -57 39 l-31 32 -239 5 -240 5 -28 26 c-15 15 -44
29 -63 33 -24 4 -44 17 -64 42 l-28 36 38 31 c20 18 45 35 53 39 9 4 74 7 144
7 92 1 138 5 165 17 l37 15 -25 19 c-27 20 -93 40 -133 40 -13 0 -42 12 -63
27 -38 27 -44 28 -209 33 -172 5 -183 7 -222 43 -15 13 -45 22 -93 27 -52 6
-78 14 -95 30 -35 33 -83 39 -295 40 l-195 0 -45 30 -45 30 -272 0 -272 0 -41
-37z"/>
        <path d="M8473 4773 c-18 -9 -33 -20 -33 -24 0 -10 57 -29 86 -29 14 0 28 -9
35 -21 6 -12 23 -32 36 -44 19 -16 24 -27 19 -43 -15 -47 -47 -52 -305 -52
l-240 0 -30 33 c-30 31 -33 32 -112 32 -97 0 -109 -10 -109 -92 0 -44 -5 -59
-25 -78 -13 -14 -34 -25 -45 -25 -34 0 -60 -19 -60 -43 0 -36 19 -47 81 -47
47 0 63 5 88 26 17 14 45 30 63 35 19 5 214 9 453 9 231 0 434 0 452 0 50 0
133 85 144 147 13 65 -3 112 -48 147 -35 28 -43 30 -152 34 -104 4 -119 7
-144 28 -34 29 -104 32 -154 7z"/>
        <path d="M5396 4712 c-8 -16 -22 -32 -31 -35 -35 -14 -2 -150 39 -161 55 -15
192 2 207 25 15 24 10 50 -16 81 -14 16 -25 37 -25 47 0 32 -42 60 -102 67
-55 6 -56 6 -72 -24z"/>
        <path d="M5285 4720 c4 -6 11 -8 16 -5 14 9 11 15 -7 15 -8 0 -12 -5 -9 -10z"/>
    </g>
</svg>
